<?xml version="1.0" standalone="no"?>
<!DOCTYPE svg PUBLIC "-//W3C//DTD SVG 20010904//EN"
 "http://www.w3.org/TR/2001/REC-SVG-20010904/DTD/svg10.dtd">
<svg version="1.0" xmlns="http://www.w3.org/2000/svg"
 width="1306.000000pt" height="376.000000pt" viewBox="0 0 1306.000000 376.000000"
 preserveAspectRatio="xMidYMid meet">

<g transform="translate(0.000000,376.000000) scale(0.100000,-0.100000)"
fill="#000000" stroke="none">
<path d="M0 1880 l0 -1880 6510 0 6510 0 0 565 0 564 -87 -85 c-162 -156 -238
-190 -298 -134 -26 24 -27 29 -23 110 l3 84 -39 22 -38 22 -85 -68 c-115 -92
-215 -141 -302 -148 -61 -4 -69 -2 -98 22 -44 37 -56 82 -51 187 4 78 2 87
-11 76 -9 -7 -71 -64 -139 -128 -165 -157 -214 -179 -273 -120 -22 23 -29 39
-29 70 l0 40 -82 -60 c-201 -144 -302 -164 -365 -70 -58 86 -3 213 176 414 34
37 61 70 61 73 0 8 -88 -44 -157 -93 -58 -41 -172 -133 -367 -297 -152 -128
-214 -154 -238 -101 -17 39 4 92 82 208 38 56 65 104 59 106 -13 4 -121 -79
-294 -228 -163 -139 -178 -149 -200 -131 -21 18 -19 48 10 98 13 23 22 42 20
42 -2 0 -39 -25 -84 -55 -135 -93 -191 -111 -252 -79 -67 34 -69 133 -4 252
l37 67 -34 -31 c-18 -17 -71 -65 -118 -108 -99 -90 -215 -171 -267 -185 -81
-23 -142 43 -128 137 l7 44 -49 -37 c-26 -20 -88 -57 -138 -81 -250 -123 -460
-86 -593 105 -56 80 -77 126 -118 251 -19 60 -37 110 -39 110 -1 0 -36 -44
-76 -97 -101 -135 -295 -328 -394 -392 -210 -136 -414 -117 -415 40 0 51 44
132 98 179 105 93 235 163 522 280 96 39 183 79 193 88 29 25 385 564 449 677
157 279 178 443 67 501 -56 28 -209 15 -340 -29 -311 -105 -650 -342 -831
-581 -75 -99 -114 -180 -127 -265 -11 -71 -26 -95 -42 -71 -17 25 -3 123 28
197 111 262 467 569 848 728 164 69 251 90 375 90 96 0 109 -2 151 -27 29 -17
53 -41 63 -63 23 -47 31 -156 17 -230 -18 -101 -167 -389 -342 -661 -83 -129
-116 -190 -107 -199 24 -24 396 179 703 385 383 256 645 482 794 683 72 97
101 118 101 73 0 -89 -329 -418 -680 -678 -253 -188 -571 -377 -815 -484 -82
-36 -152 -68 -154 -69 -7 -7 83 -262 114 -325 102 -204 266 -270 476 -191 114
43 299 173 329 231 25 48 122 183 183 253 55 63 103 95 119 79 23 -23 -7 -87
-113 -248 -131 -199 -169 -267 -169 -305 0 -25 4 -29 28 -29 53 0 192 109 449
352 193 182 272 248 301 248 21 0 23 -3 17 -27 -10 -42 -42 -93 -168 -265
-133 -183 -166 -236 -174 -283 -5 -30 -3 -35 20 -40 37 -10 102 23 244 122
101 71 133 100 166 148 118 175 232 305 266 305 53 0 22 -83 -89 -234 -40 -55
-75 -107 -78 -115 -7 -19 -10 -20 115 71 104 75 168 108 212 108 67 0 78 -37
35 -123 -15 -29 -40 -72 -57 -97 l-31 -44 30 21 c16 12 92 71 169 133 277 220
411 290 486 250 43 -24 21 -74 -116 -260 -121 -165 -150 -217 -141 -253 14
-57 94 -26 285 109 92 64 112 83 133 127 49 98 183 231 286 283 103 52 204 36
219 -36 3 -17 10 -30 14 -30 5 0 28 18 52 39 40 37 55 45 86 42 23 -2 5 -57
-44 -135 -24 -39 -65 -115 -90 -169 -72 -155 -60 -221 42 -219 53 0 210 74
296 137 40 30 46 38 37 55 -29 53 2 138 83 226 68 75 130 116 173 116 43 0 74
-26 74 -61 0 -37 -41 -119 -102 -207 l-52 -76 24 -43 23 -42 -18 -72 c-14 -51
-16 -74 -8 -82 23 -23 109 38 261 183 l62 60 0 924 c0 609 3 924 10 924 7 0
10 -513 10 -1520 0 -1007 3 -1520 10 -1520 7 0 10 633 10 1880 l0 1880 -6530
0 -6530 0 0 -1880z m1761 923 c60 -27 105 -67 132 -117 19 -35 22 -56 22 -151
-1 -97 -5 -121 -33 -203 -39 -112 -107 -251 -170 -347 -96 -145 -252 -275
-330 -275 -62 0 -127 65 -137 137 -18 131 108 421 206 473 26 14 59 -4 59 -32
0 -11 -27 -80 -59 -152 -107 -237 -117 -316 -41 -316 84 0 277 211 366 398 71
150 103 329 75 415 -28 84 -93 127 -194 127 -173 0 -340 -103 -597 -366 -200
-205 -327 -372 -426 -559 -158 -296 -191 -543 -98 -716 95 -173 328 -224 613
-133 42 13 149 61 237 105 l162 81 73 107 c294 428 815 1113 973 1278 138 145
278 241 376 256 90 15 146 -45 136 -144 -13 -132 -89 -260 -259 -432 -256
-258 -567 -504 -814 -643 -110 -61 -112 -64 -225 -224 -45 -63 -93 -131 -107
-150 l-26 -35 26 20 c15 11 57 45 95 76 193 158 352 249 435 249 55 0 73 -17
72 -64 -1 -44 -28 -95 -146 -270 -111 -167 -145 -232 -128 -249 16 -16 137 50
262 143 92 68 110 86 135 137 45 90 189 230 286 278 66 32 84 37 123 32 45 -5
95 -37 95 -61 0 -6 5 -18 10 -26 8 -12 16 -9 47 21 97 93 137 59 67 -57 -73
-120 -154 -295 -154 -334 0 -58 26 -83 86 -82 39 0 72 12 162 58 134 67 192
120 297 268 118 166 204 241 237 208 19 -19 -18 -93 -118 -233 -119 -167 -128
-183 -86 -149 17 14 86 70 154 125 198 162 351 255 417 255 11 0 27 -7 35 -16
39 -38 9 -107 -129 -299 -92 -127 -134 -203 -135 -237 -1 -56 119 -7 287 117
90 67 106 83 141 148 22 40 65 104 95 143 87 111 155 154 245 154 50 0 80 -20
96 -64 5 -15 34 22 134 170 341 506 616 808 788 864 78 26 144 -16 144 -91 0
-62 -40 -165 -99 -260 -122 -193 -506 -570 -824 -809 -55 -41 -109 -87 -119
-101 -24 -31 -39 -144 -28 -195 12 -51 41 -87 78 -98 43 -12 126 29 276 137
105 75 123 93 150 144 47 89 185 222 279 268 66 32 83 37 124 32 37 -4 54 -12
75 -36 15 -17 28 -38 28 -46 0 -23 13 -18 46 16 35 37 81 62 95 53 19 -11 3
-68 -36 -129 -49 -75 -133 -251 -141 -292 -15 -80 32 -121 116 -102 59 13 152
58 237 115 55 36 84 66 139 141 141 196 224 283 266 283 54 0 23 -76 -109
-260 -49 -69 -93 -132 -98 -140 -11 -19 -2 -12 115 86 197 165 413 304 471
304 39 0 59 -19 59 -54 0 -46 -40 -117 -143 -261 -129 -177 -157 -244 -112
-261 25 -10 133 48 260 139 66 48 126 87 133 87 23 0 12 -36 -20 -67 -52 -49
-213 -167 -264 -192 -123 -62 -214 -24 -214 89 0 70 48 155 174 310 141 172
141 184 -5 89 -115 -76 -306 -223 -459 -356 -147 -127 -197 -163 -227 -163
-38 0 -38 27 0 102 31 61 33 68 14 54 -101 -72 -209 -116 -286 -116 -53 0 -84
18 -106 61 -21 39 -29 143 -17 197 5 23 7 42 3 42 -3 0 -71 -61 -149 -135
-153 -143 -192 -166 -248 -148 -34 11 -64 63 -64 110 l0 33 -59 -45 c-75 -57
-193 -121 -252 -135 -61 -15 -115 -1 -156 42 -45 47 -63 96 -63 177 l0 69
-122 -122 c-166 -165 -239 -199 -284 -131 -12 18 -15 40 -12 78 l4 53 -85 -65
c-118 -88 -198 -125 -259 -118 -65 7 -92 40 -92 111 0 68 36 141 130 261 141
179 153 196 147 201 -18 18 -285 -173 -520 -372 -220 -186 -233 -196 -269
-197 -31 -2 -33 0 -32 30 1 18 16 56 34 84 l32 53 -28 -19 c-131 -86 -202
-115 -287 -115 -42 0 -54 5 -82 33 -27 27 -34 44 -40 91 -4 32 -5 86 -1 119
l6 61 -32 -30 c-18 -16 -82 -76 -141 -132 -141 -135 -196 -158 -253 -109 -20
18 -28 35 -31 74 l-5 52 -77 -58 c-138 -105 -187 -134 -239 -139 -40 -3 -53 0
-76 19 -33 29 -44 89 -27 142 15 45 95 176 165 270 29 41 61 88 70 106 16 31
16 31 -8 31 -36 0 -129 -52 -235 -132 -99 -74 -182 -149 -372 -336 -119 -117
-150 -133 -157 -84 -2 12 14 56 37 98 l41 75 -43 -26 c-85 -53 -284 -145 -372
-171 -75 -23 -109 -27 -200 -27 -163 0 -263 41 -363 147 -117 123 -163 308
-128 506 64 356 403 850 772 1124 103 77 262 159 349 181 78 19 198 14 256
-12z"/>
<path d="M2935 2743 c-86 -45 -226 -181 -390 -378 -142 -170 -542 -712 -532
-721 9 -9 316 203 461 320 272 218 482 439 555 585 37 74 45 113 31 156 -18
55 -65 70 -125 38z"/>
<path d="M5632 2449 c-89 -35 -292 -244 -477 -490 -169 -224 -433 -622 -395
-593 443 328 788 673 892 891 34 71 48 164 28 188 -14 17 -16 17 -48 4z"/>
<path d="M4538 1451 c-55 -35 -139 -140 -207 -259 -49 -86 -86 -181 -79 -202
9 -29 189 124 280 239 87 109 121 189 98 232 -15 26 -38 24 -92 -10z"/>
<path d="M2759 1431 c-51 -33 -141 -125 -188 -194 -42 -61 -83 -154 -79 -179
3 -18 7 -16 53 14 27 18 114 96 193 173 110 108 142 146 142 166 0 56 -52 65
-121 20z"/>
<path d="M5506 1429 c-90 -60 -210 -215 -252 -325 -9 -25 -14 -48 -10 -51 14
-14 76 32 199 145 126 118 165 159 186 199 14 28 14 29 -5 47 -24 25 -66 19
-118 -15z"/>
<path d="M12685 1423 c-74 -76 -118 -188 -83 -209 25 -16 178 189 178 238 0
35 -48 21 -95 -29z"/>
<path d="M11949 1440 c-52 -28 -189 -177 -227 -247 -40 -75 -64 -141 -53 -147
32 -20 391 317 391 367 0 49 -48 61 -111 27z"/>
<path d="M8230 1385 c-258 -91 -437 -189 -524 -286 -57 -64 -74 -110 -52 -144
37 -57 168 -18 314 91 114 86 340 327 330 353 -1 5 -32 -1 -68 -14z"/>
</g>
</svg>
