<?xml version="1.0" standalone="no"?>
<!DOCTYPE svg PUBLIC "-//W3C//DTD SVG 20010904//EN"
 "http://www.w3.org/TR/2001/REC-SVG-20010904/DTD/svg10.dtd">
<svg version="1.0" xmlns="http://www.w3.org/2000/svg"
 width="500.000000pt" height="150.000000pt" viewBox="0 0 500.000000 150.000000"
 preserveAspectRatio="xMidYMid meet">

<g transform="translate(0.000000,150.000000) scale(0.100000,-0.100000)"
fill="#000000" stroke="none">
<path d="M3357 1235 c-265 -42 -537 -188 -537 -288 0 -39 25 -67 61 -67 41 0
131 59 207 136 40 41 75 74 78 74 16 0 -199 -349 -262 -426 -35 -44 -35 -54 1
-54 18 0 39 25 96 116 52 82 97 138 150 188 79 75 170 132 194 122 27 -10 18
-72 -16 -111 -33 -38 -62 -44 -89 -20 -22 20 -50 9 -50 -21 0 -12 -7 -49 -15
-81 -38 -147 31 -176 181 -76 64 43 149 93 158 93 3 0 -3 -19 -13 -43 -30 -69
-35 -106 -17 -113 25 -9 87 16 144 58 l53 39 -16 -37 c-26 -62 -18 -68 43 -31
96 61 183 109 188 104 3 -2 -2 -22 -10 -42 -9 -21 -16 -48 -16 -61 0 -29 26
-32 35 -4 11 33 83 119 115 135 36 18 36 16 10 -60 -11 -32 -20 -66 -20 -77 0
-31 34 -20 55 18 22 42 97 124 112 124 7 0 1 -29 -14 -71 -19 -56 -22 -73 -12
-85 16 -20 39 -11 136 52 45 30 83 54 85 54 2 0 2 -18 0 -40 -2 -23 1 -47 8
-55 16 -19 60 -19 88 1 13 9 22 11 22 4 0 -28 37 -15 164 60 76 44 140 80 142
80 2 0 -12 -32 -31 -70 -20 -39 -33 -75 -30 -80 15 -25 35 -5 59 58 41 108 76
145 76 81 0 -18 -9 -47 -21 -65 -33 -55 -8 -69 60 -35 41 21 71 51 52 51 -6 0
-23 -7 -37 -16 -13 -9 -27 -14 -30 -11 -4 3 0 28 6 55 29 110 -20 109 -213 -3
-72 -43 -136 -80 -141 -83 -12 -7 1 45 24 93 24 49 14 58 -55 50 -58 -7 -140
-45 -245 -114 -41 -27 -76 -46 -78 -42 -1 4 9 32 22 61 19 41 22 58 15 73 -15
26 -62 16 -112 -25 -33 -25 -38 -27 -33 -11 10 31 -3 53 -33 53 -32 0 -89 -34
-98 -58 -6 -14 -8 -13 -13 8 -9 40 -38 35 -135 -24 -49 -29 -92 -52 -94 -50
-2 1 4 24 13 50 20 60 20 64 -3 64 -11 0 -23 -9 -26 -20 -11 -34 -167 -152
-181 -137 -3 3 11 35 30 71 19 36 33 73 30 81 -12 31 -51 17 -219 -79 -82 -47
-112 -55 -133 -34 -28 28 1 154 32 142 8 -3 35 3 60 15 75 33 133 150 94 189
-18 18 -74 14 -118 -8 -21 -11 -65 -44 -98 -75 -33 -30 -62 -55 -66 -55 -3 0
10 27 30 60 32 55 64 130 64 151 0 28 -50 -1 -130 -76 -135 -126 -198 -166
-224 -140 -75 75 307 271 572 294 75 6 103 25 42 28 -19 1 -74 -5 -123 -12z
m1158 -432 c-9 -41 -51 -100 -76 -108 -55 -18 -44 51 18 105 44 39 68 40 58 3z"/>
<path d="M595 1183 c-11 -2 -42 -11 -70 -20 -28 -9 -87 -17 -135 -17 -74 -1
-91 -5 -132 -28 -97 -58 -162 -165 -174 -287 -10 -107 50 -171 162 -171 54 0
74 6 141 41 43 23 90 50 105 61 l28 19 0 -45 c0 -58 16 -60 84 -11 27 19 53
35 58 35 4 0 5 -18 2 -40 -11 -70 24 -64 184 30 l53 31 -6 -34 c-9 -49 8 -77
47 -77 17 0 40 7 50 16 16 16 18 16 24 0 3 -9 11 -16 18 -16 6 0 63 31 126 69
63 38 116 68 117 67 1 -1 -7 -28 -19 -59 -16 -43 -18 -61 -10 -69 9 -9 22 1
54 37 43 49 121 105 145 105 9 0 4 -19 -17 -60 -32 -63 -36 -85 -19 -95 18
-12 52 3 149 65 52 33 98 60 102 60 4 0 0 -13 -9 -28 -34 -59 13 -111 74 -83
20 9 28 9 34 0 11 -18 49 -4 133 51 42 27 78 50 79 50 1 0 1 -18 -1 -40 -2
-23 1 -47 8 -55 16 -19 60 -19 88 1 13 9 22 11 22 4 0 -27 35 -16 139 45 62
37 115 64 118 61 3 -3 -2 -23 -11 -46 -9 -22 -16 -49 -16 -60 0 -30 27 -24 44
9 24 45 147 133 164 117 3 -4 -7 -33 -23 -65 -29 -62 -28 -91 3 -91 22 0 162
87 162 101 0 14 -5 12 -66 -27 -30 -20 -58 -34 -60 -31 -3 2 5 25 16 51 11 26
20 59 20 72 0 20 -5 24 -27 24 -36 -1 -99 -30 -142 -66 -28 -23 -33 -25 -27
-9 14 32 19 75 9 75 -4 0 -55 -27 -113 -61 -158 -91 -144 -86 -136 -53 4 16
16 47 26 69 24 49 14 58 -55 50 -64 -8 -109 -28 -220 -99 -60 -38 -91 -52 -93
-43 -1 7 25 75 59 151 33 76 58 140 55 143 -14 14 -38 -12 -71 -77 -29 -57
-40 -70 -59 -70 -42 0 -103 -28 -211 -95 -59 -37 -108 -65 -110 -63 -2 2 5 23
15 46 29 65 30 96 2 100 -34 5 -86 -15 -137 -54 l-46 -36 16 38 c10 24 12 41
6 47 -9 9 -42 -8 -198 -101 -34 -20 -53 -27 -53 -19 0 24 32 107 41 107 22 0
6 19 -21 25 -29 6 -143 -17 -164 -34 -6 -5 -31 -20 -56 -33 -25 -14 -68 -39
-97 -56 l-52 -31 -3 42 c-3 36 -6 42 -28 45 -15 1 -43 -10 -70 -27 -24 -17
-46 -29 -47 -27 -2 2 0 20 5 41 7 36 15 43 156 130 163 100 189 127 158 165
-26 32 -121 32 -180 2 -52 -28 -123 -116 -158 -199 -25 -58 -33 -66 -99 -108
-137 -85 -191 -100 -245 -69 -49 29 -63 67 -57 150 13 173 139 315 258 289
l29 -7 -56 -55 c-95 -94 -133 -213 -79 -249 94 -62 241 139 203 277 -7 25 -4
28 33 43 23 9 61 19 85 23 24 3 44 10 44 14 0 9 -39 10 -75 2z m-105 -102 c38
-72 -45 -231 -120 -231 -73 0 -54 96 40 203 45 51 64 58 80 28z m368 -11 c8 0
12 -9 10 -22 -2 -16 -36 -43 -118 -95 -163 -104 -153 -99 -145 -71 11 33 60
102 102 143 38 37 84 56 118 49 11 -2 26 -4 33 -4z m937 -252 c-12 -41 -55
-107 -76 -119 -33 -17 -43 2 -24 47 18 45 42 73 70 85 32 13 37 10 30 -13z
m-745 7 c0 -3 -7 -22 -16 -43 -19 -46 -62 -92 -86 -92 -41 0 -8 88 45 120 31
19 57 26 57 15z m1065 -22 c-9 -41 -51 -100 -76 -108 -55 -18 -44 51 18 105
44 39 68 40 58 3z"/>
</g>
</svg>
